<svg width="0" height="0" class="hidden">
  <symbol xmlns="http://www.w3.org/2000/svg" viewBox="0 0 114 19" id="logo">
    <path d="M15.248 5.736c0 1.728-.6 3.072-1.8 4.032-1.184.944-2.752 1.416-4.704 1.416h-3.6c-.176 0-.264.088-.264.264v6c0 .368-.208.552-.624.552H1.184c-.192 0-.328-.04-.408-.12-.064-.08-.096-.2-.096-.36V.648c0-.304.128-.456.384-.456h7.2c1.328 0 2.512.208 3.552.624 1.056.4 1.888 1.016 2.496 1.848.624.832.936 1.856.936 3.072zm-4.32-.072c0-.816-.264-1.432-.792-1.848C9.608 3.4 8.896 3.192 8 3.192H5.336c-.16 0-.28.032-.36.096-.064.064-.096.176-.096.336v4.104c0 .16.024.28.072.36.048.064.136.096.264.096h2.952c.848 0 1.52-.224 2.016-.672.496-.448.744-1.064.744-1.848zm11.49 12.576c-1.264 0-2.384-.272-3.36-.816a5.957 5.957 0 01-2.256-2.328c-.544-.992-.816-2.12-.816-3.384 0-1.312.272-2.472.816-3.48a6.031 6.031 0 012.304-2.352c.992-.56 2.104-.84 3.336-.84 1.264 0 2.384.288 3.36.864a5.708 5.708 0 012.256 2.352c.544 1.008.816 2.152.816 3.432 0 1.264-.272 2.392-.816 3.384a5.908 5.908 0 01-2.28 2.328c-.976.56-2.096.84-3.36.84zm.024-2.448c.88 0 1.544-.344 1.992-1.032.464-.704.696-1.744.696-3.12 0-1.392-.232-2.44-.696-3.144-.448-.72-1.112-1.08-1.992-1.08-.88 0-1.552.36-2.016 1.08-.464.704-.696 1.752-.696 3.144 0 1.36.232 2.392.696 3.096.464.704 1.136 1.056 2.016 1.056zM31.433 18c-.336 0-.504-.16-.504-.48V5.736c0-.304.128-.456.384-.456h2.808c.256 0 .384.136.384.408v1.416c0 .064.016.112.048.144.032.032.064.048.096.048.048 0 .112-.04.192-.12a5.753 5.753 0 011.704-1.536c.656-.4 1.28-.6 1.872-.6.576 0 .864.136.864.408v2.784c0 .112-.032.2-.096.264s-.152.08-.264.048a6.92 6.92 0 00-1.68-.192c-.4 0-.808.104-1.224.312-.4.192-.736.456-1.008.792-.256.32-.384.648-.384.984v7.008c0 .368-.208.552-.624.552h-2.568zM46.5 7.824c-.176 0-.264.096-.264.288v5.784c0 .544.128.936.384 1.176.256.224.664.336 1.224.336h1.296c.112 0 .2.04.264.12.064.064.096.16.096.288l-.024 1.464c0 .32-.176.512-.528.576-.672.096-1.624.144-2.856.144-1.12 0-1.992-.264-2.616-.792-.624-.528-.936-1.296-.936-2.304v-6.72c0-.24-.104-.36-.312-.36h-1.464c-.304 0-.456-.136-.456-.408V5.64c0-.24.144-.36.432-.36h1.656c.128 0 .208-.088.24-.264l.336-3.648c.032-.272.152-.408.36-.408h2.616c.112 0 .2.04.264.12.08.08.12.192.12.336v3.6c0 .16.08.24.24.24h2.52c.288 0 .432.128.432.384v1.776c0 .272-.16.408-.48.408H46.5zM56.965 18.24c-1.264 0-2.384-.272-3.36-.816a5.957 5.957 0 01-2.256-2.328c-.544-.992-.816-2.12-.816-3.384 0-1.312.272-2.472.816-3.48a6.031 6.031 0 012.304-2.352c.992-.56 2.104-.84 3.336-.84 1.264 0 2.384.288 3.36.864a5.708 5.708 0 012.256 2.352c.544 1.008.816 2.152.816 3.432 0 1.264-.272 2.392-.816 3.384a5.908 5.908 0 01-2.28 2.328c-.976.56-2.096.84-3.36.84zm.024-2.448c.88 0 1.544-.344 1.992-1.032.464-.704.696-1.744.696-3.12 0-1.392-.232-2.44-.696-3.144-.448-.72-1.112-1.08-1.992-1.08-.88 0-1.552.36-2.016 1.08-.464.704-.696 1.752-.696 3.144 0 1.36.232 2.392.696 3.096.464.704 1.136 1.056 2.016 1.056zM72.47 5.28c.145 0 .257.04.337.12.08.08.12.176.12.288v1.776c0 .24-.136.36-.408.36h-1.992c-.16 0-.24.088-.24.264v9.456c0 .304-.128.456-.384.456H66.95c-.24 0-.36-.136-.36-.408V8.04c0-.144-.064-.216-.192-.216H64.67c-.288 0-.432-.12-.432-.36V5.688c0-.112.04-.208.12-.288.08-.08.192-.12.336-.12h1.608c.112 0 .184-.024.216-.072.048-.064.072-.16.072-.288V3.456c0-1.024.304-1.824.912-2.4C68.11.48 68.966.192 70.07.192h2.424c.352 0 .528.168.528.504l.024 1.56c0 .272-.12.408-.36.408H71.39c-.352 0-.64.136-.864.408-.224.256-.336.592-.336 1.008v.936c0 .176.096.264.288.264h1.992zm7.652 12.96c-1.264 0-2.384-.272-3.36-.816a5.957 5.957 0 01-2.256-2.328c-.544-.992-.816-2.12-.816-3.384 0-1.312.272-2.472.816-3.48A6.031 6.031 0 0176.81 5.88c.992-.56 2.104-.84 3.336-.84 1.264 0 2.384.288 3.36.864a5.708 5.708 0 012.256 2.352c.544 1.008.816 2.152.816 3.432 0 1.264-.272 2.392-.816 3.384a5.908 5.908 0 01-2.28 2.328c-.976.56-2.096.84-3.36.84zm.024-2.448c.88 0 1.544-.344 1.992-1.032.464-.704.696-1.744.696-3.12 0-1.392-.232-2.44-.696-3.144-.448-.72-1.112-1.08-1.992-1.08-.88 0-1.552.36-2.016 1.08-.464.704-.696 1.752-.696 3.144 0 1.36.232 2.392.696 3.096.464.704 1.136 1.056 2.016 1.056zm12.208 1.632c0 .208-.048.36-.144.456-.097.08-.264.12-.505.12h-2.543c-.192 0-.329-.04-.409-.12-.08-.08-.12-.208-.12-.384L88.704.648c0-.304.129-.456.385-.456h2.904c.24 0 .36.144.36.432v16.8zm6.398-14.28c0 .4-.216.6-.648.6h-2.591c-.192 0-.329-.04-.409-.12-.08-.096-.12-.24-.12-.432V.672c0-.32.136-.48.408-.48h2.977c.112 0 .2.04.264.12.08.08.12.192.12.336v2.496zm-.047 14.28c0 .208-.048.36-.144.456-.097.08-.264.12-.505.12h-2.52c-.191 0-.328-.04-.407-.12-.08-.08-.12-.208-.12-.384V5.736c0-.304.136-.456.407-.456h2.928c.24 0 .36.136.36.408v11.736zm8.511.816c-1.264 0-2.384-.272-3.36-.816a5.957 5.957 0 01-2.256-2.328c-.544-.992-.816-2.12-.816-3.384 0-1.312.272-2.472.816-3.48a6.031 6.031 0 012.304-2.352c.992-.56 2.104-.84 3.336-.84 1.264 0 2.384.288 3.36.864a5.708 5.708 0 012.256 2.352c.544 1.008.816 2.152.816 3.432 0 1.264-.272 2.392-.816 3.384a5.908 5.908 0 01-2.28 2.328c-.976.56-2.096.84-3.36.84zm.024-2.448c.88 0 1.544-.344 1.992-1.032.464-.704.696-1.744.696-3.12 0-1.392-.232-2.44-.696-3.144-.448-.72-1.112-1.08-1.992-1.08-.88 0-1.552.36-2.016 1.08-.464.704-.696 1.752-.696 3.144 0 1.36.232 2.392.696 3.096.464.704 1.136 1.056 2.016 1.056z"></path>
  </symbol>

  <symbol xmlns="http://www.w3.org/2000/svg" viewBox="0 0 14 24" id="right">
    <path d="M.035 22.91L10.934 12 .035 1.09 1.09.035 13.066 12 1.09 23.965.035 22.91z"></path>
  </symbol>

  <symbol xmlns="http://www.w3.org/2000/svg" viewBox="0 0 14 24" id="left">
    <path d="M12.91 23.965L.934 12 12.91.035l1.055 1.055L3.066 12l10.899 10.91-1.055 1.055z"></path>
  </symbol>
</svg>